<svg width="86" height="130" viewBox="0 0 86 130" fill="none" xmlns="http://www.w3.org/2000/svg">
<mask id="mask0_30_285" style="mask-type:luminance" maskUnits="userSpaceOnUse" x="0" y="0" width="86" height="130">
<path d="M85.2293 0.0441589V129.956H0.770752V0.0441589H85.2293Z" fill="white"/>
</mask>
<g mask="url(#mask0_30_285)">
<path d="M79.5321 0.147156C79.4851 0.272695 79.6362 0.371476 79.6016 0.502506C79.5733 0.610082 79.5977 0.732714 79.6054 0.848216C79.6198 1.06148 79.6541 1.2744 79.6543 1.48751C79.6578 3.90567 79.6565 6.32385 79.6565 8.74201C79.8056 10.5254 79.7097 12.3124 79.7321 14.0976C79.7403 14.7673 79.8699 15.4188 80.1198 16.0263C80.4398 16.8036 80.8901 17.5106 81.5176 18.0954C81.9317 18.4812 82.3856 18.8025 82.8632 19.1016C83.3362 19.3976 83.8112 19.697 84.1674 20.1456C84.4059 20.4457 84.5643 20.7722 84.6734 21.1436C84.9136 21.9625 84.8664 22.7661 84.6935 23.5884C84.4898 24.5559 84.0047 25.3615 83.374 26.0952C82.6054 26.9891 81.6816 27.7053 80.7177 28.3697C79.6312 29.1185 78.4893 29.7801 77.3623 30.4648C76.6583 30.8924 75.9575 31.3272 75.2766 31.7903C74.6765 32.1982 74.1074 32.6469 73.6704 33.2461C73.4498 33.5485 73.3072 33.874 73.2365 34.2305C73.1825 34.5005 73.269 34.7629 73.4282 34.979C73.6823 35.3236 73.9367 35.6744 74.2378 35.9765C74.5851 36.3251 74.9723 36.6367 75.3611 36.94C75.8281 37.3042 76.3175 37.6396 76.7924 37.9934C77.3608 38.4168 77.9147 38.858 78.38 39.3979C78.8813 39.9795 79.2765 40.6202 79.4213 41.3869C79.467 41.6284 79.4901 41.8776 79.4933 42.1238C79.5187 44.0592 79.552 45.9948 79.5545 47.9304C79.5619 54.1912 79.5522 60.452 79.5584 66.7126C79.5656 73.8996 79.5828 81.0866 79.5954 88.2736C79.5957 88.4713 79.5954 88.6693 79.5954 88.8857C69.4373 94.6581 59.2906 100.423 49.128 106.198V127.999C49.01 128.014 48.9176 128.036 48.8252 128.037C47.0034 128.039 45.1818 128.038 43.3602 128.038C43.2954 128.038 43.2303 128.03 43.1354 128.025C43.12 127.93 43.0974 127.839 43.0924 127.746C43.085 127.614 43.0904 127.481 43.0904 127.349V109.671C42.9869 109.71 42.9118 109.728 42.8475 109.765C42.1743 110.147 41.5034 110.534 40.8307 110.917C39.2401 111.822 37.6508 112.729 36.0578 113.63C34.5127 114.504 32.9616 115.366 31.417 116.241C29.2365 117.475 27.0577 118.712 24.8814 119.954C23.3385 120.834 21.8035 121.728 20.2601 122.607C18.3548 123.692 16.4426 124.765 14.5367 125.849C13.0348 126.703 11.5392 127.569 10.0382 128.424C9.32215 128.832 8.60013 129.23 7.88002 129.631C7.8257 129.661 7.76501 129.68 7.71958 129.699C7.60414 129.633 7.63733 129.541 7.63644 129.466C7.63221 129.102 7.6344 128.737 7.6344 128.373C7.63437 122.245 7.62921 116.116 7.63865 109.988C7.64061 108.721 7.19991 107.643 6.39522 106.688C5.9652 106.178 5.435 105.784 4.90974 105.385C4.42343 105.016 3.91954 104.669 3.44123 104.29C2.93572 103.889 2.49388 103.429 2.20088 102.838C2.02123 102.475 1.97644 102.084 1.89765 101.7C1.87534 101.591 1.89616 101.468 1.91745 101.356C2.09747 100.407 2.47065 99.5346 2.9549 98.7025C3.7073 97.4094 4.67529 96.2938 5.72407 95.237C6.87365 94.0785 8.11686 93.0206 9.28328 91.8817C10.0501 91.1329 10.8476 90.406 11.4669 89.5208C11.9767 88.7921 12.4462 88.0378 12.7769 87.206C13.0372 86.5514 13.1646 85.883 13.0727 85.1735C13.0465 84.9717 12.982 84.7909 12.9259 84.6023C12.6706 83.7444 12.1883 83.0165 11.609 82.3519C11.1644 81.8416 10.6908 81.3569 10.2273 80.8635C9.6277 80.2252 9.02272 79.5919 8.55455 78.8449C8.1493 78.1982 7.85434 77.5135 7.72899 76.7507C7.66692 76.3733 7.63341 76.0004 7.63345 75.6203C7.6346 63.9437 7.6344 52.2668 7.6344 40.5899V39.9944C7.80036 39.7656 8.06034 39.6804 8.28379 39.5546C9.25973 39.0051 10.2462 38.4744 11.2277 37.9348C12.1343 37.4364 13.0392 36.9353 13.9452 36.4357C14.7514 35.9912 15.557 35.5457 16.3646 35.104C17.0994 34.702 17.8387 34.3082 18.5721 33.9038C19.1773 33.5699 19.7738 33.2201 20.3791 32.8864C21.7046 32.1557 23.0355 31.4345 24.3599 30.7016C25.3826 30.1356 26.3952 29.551 27.4189 28.9868C28.1393 28.5896 28.8758 28.2214 29.5964 27.8243C30.5054 27.3237 31.4019 26.8005 32.31 26.2989C33.8216 25.4641 35.3404 24.6425 36.8522 23.8079C38.207 23.0599 39.5541 22.2975 40.9089 21.5496C42.1467 20.8663 43.3935 20.1991 44.6311 19.5153C45.8276 18.8541 47.0163 18.1784 48.2109 17.5136C49.3056 16.9043 50.4011 16.296 51.5013 15.6962C52.9028 14.932 54.3008 14.1616 55.6914 13.3778C56.7365 12.7889 57.791 12.2165 58.8432 11.6403C60.1831 10.9064 61.5273 10.1797 62.8659 9.4431C63.9912 8.82385 65.1113 8.19496 66.2336 7.57027C67.3696 6.93806 68.5043 6.30393 69.6415 5.67422C70.3184 5.29944 70.9998 4.93271 71.6779 4.5604C72.5267 4.09454 73.3738 3.626 74.2224 3.15979C75.4038 2.51068 76.5865 1.86415 77.7669 1.21343C78.2861 0.927296 78.8018 0.635125 79.3162 0.340619C79.3664 0.311874 79.396 0.247229 79.4009 0.173218C79.4106 0.147156 79.4548 0.147156 79.5321 0.147156ZM13.6794 54.0596C13.6702 55.5147 13.6466 56.9701 13.6317 58.425C13.5925 62.2667 13.612 66.1094 13.6223 69.9513C13.6254 71.1416 13.577 72.3319 13.6696 73.5227C13.712 74.0675 13.7673 74.6004 13.9122 75.1296C14.2161 76.2397 14.7889 77.186 15.5858 78.0054C15.9767 78.4074 16.4063 78.7673 16.7741 79.1967C17.5484 80.1003 18.1315 81.0975 18.4181 82.2577C18.4655 82.4493 18.5235 82.6468 18.5208 82.8408C18.5091 83.6955 18.6339 84.5643 18.2932 85.3901C18.2811 85.4194 18.2919 85.4575 18.2821 85.4883C18.1427 85.926 18.024 86.372 17.8563 86.7986C17.5145 87.6689 16.9708 88.4122 16.3453 89.1004C15.5545 89.9702 14.6588 90.7257 13.7643 91.483C13.0205 92.1125 12.2651 92.7292 11.5406 93.3803C11.0004 93.8658 10.4803 94.3771 10.0352 94.9565C9.44703 95.7219 8.95136 96.5274 8.85127 97.5227C8.78567 98.1751 8.84514 98.8146 9.05934 99.4262C9.4006 100.4 10.0466 101.162 10.8161 101.836C11.4372 102.379 12.0509 102.934 12.6351 103.516C13.3532 104.231 13.7149 105.104 13.7223 106.135C13.7428 108.998 13.6662 111.86 13.7702 114.723C13.8201 116.096 13.7777 117.472 13.781 118.847C13.7813 118.951 13.7326 119.074 13.8564 119.171C13.9319 119.134 14.0061 119.102 14.0758 119.063C15.8544 118.055 17.6327 117.047 19.4107 116.038C20.3831 115.486 21.3549 114.934 22.327 114.381C23.071 113.958 23.8144 113.534 24.559 113.113C25.5193 112.569 26.4809 112.027 27.4413 111.483C28.762 110.735 30.0833 109.988 31.4021 109.237C32.2301 108.765 33.0515 108.282 33.8802 107.811C34.8249 107.275 35.7763 106.751 36.7218 106.216C38.0565 105.46 39.3879 104.699 40.7214 103.941C41.4211 103.543 42.1229 103.149 42.8212 102.748C42.9183 102.693 43.001 102.612 43.0671 102.561C43.0788 102.507 43.0855 102.491 43.0855 102.475C43.0875 97.2581 43.089 92.0412 43.0904 86.8246C43.0904 86.775 43.0907 86.7253 43.0914 86.6756C43.0919 86.6589 43.0947 86.6425 43.0964 86.6261C43.0981 86.6095 43.0959 86.5911 43.1026 86.5772C43.1096 86.5633 43.1255 86.5538 43.1729 86.5084C43.2134 86.5064 43.2921 86.4987 43.3709 86.4987C45.1925 86.4982 47.0138 86.4977 48.8354 86.4999C48.9268 86.5002 49.0182 86.5265 49.1305 86.5437V95.513C49.1305 96.1093 49.13 96.7055 49.1307 97.3018C49.1315 97.8938 49.1337 98.4859 49.1352 99.0963C49.4251 99.0479 49.6106 98.8744 49.8203 98.7557C51.5385 97.7825 53.2526 96.8017 54.9691 95.8258C56.4727 94.9711 57.9778 94.1197 59.4821 93.2663C60.6136 92.6246 61.7446 91.9826 62.8756 91.3401C63.7903 90.8206 64.7034 90.2984 65.6193 89.7809C66.8807 89.0684 68.1456 88.3615 69.4063 87.6475C70.6108 86.9653 71.8113 86.2761 73.0149 85.5919C73.5104 85.3101 73.5119 85.3126 73.5119 84.7636C73.5122 71.1006 73.5122 57.4377 73.5117 43.7747C73.5117 42.3305 72.9212 41.1579 71.8474 40.2182C71.2393 39.6861 70.623 39.1623 69.9962 38.652C69.5541 38.292 69.1961 37.8622 68.8883 37.3917C68.4991 36.7964 68.4151 36.1549 68.592 35.4541C68.7177 34.9567 68.9728 34.5425 69.2731 34.1555C69.8603 33.3994 70.538 32.7224 71.2745 32.1137C72.3553 31.2201 73.4575 30.352 74.5585 29.483C75.3367 28.8691 76.08 28.2204 76.7594 27.4957C77.7073 26.484 78.4662 25.3647 78.8562 24.0195C79.1538 23.5157 78.9762 23.0678 78.6773 22.6468C78.5352 22.4464 78.3728 22.2539 78.1902 22.0902C77.7453 21.6908 77.2231 21.4036 76.704 21.112C76.187 20.8215 75.6699 20.5292 75.1711 20.209C74.5682 19.8219 74.161 19.2732 73.937 18.5881C73.7675 18.0708 73.6702 17.5372 73.58 17.0039C73.5254 16.6808 73.5162 16.3474 73.5149 16.0185C73.5087 14.379 73.5124 12.7394 73.5117 11.0998C73.5114 10.9396 73.5047 10.7793 73.5 10.5786C73.3785 10.6338 73.2891 10.6673 73.2066 10.7128C72.2694 11.2299 71.3334 11.7493 70.3964 12.2671C69.129 12.9674 67.8614 13.6673 66.5935 14.3667C65.3239 15.0672 64.0526 15.7649 62.784 16.4672C61.1837 17.353 59.5867 18.2444 57.986 19.1289C56.8766 19.742 55.7635 20.3491 54.6506 20.9561C53.8549 21.39 53.0541 21.8141 52.2609 22.2524C51.5842 22.6262 50.9185 23.0196 50.2426 23.3944C49.0346 24.0644 47.8214 24.7251 46.6124 25.3933C45.3591 26.0857 44.1099 26.7854 42.8562 27.4765C41.7463 28.0884 40.631 28.6904 39.5208 29.3018C38.4375 29.8986 37.3577 30.5013 36.2766 31.1018C35.0527 31.7821 33.8308 32.4658 32.6052 33.1425C30.1375 34.505 27.6683 35.8643 25.1992 37.2237C23.756 38.0183 22.3105 38.8086 20.868 39.6043C18.6025 40.854 16.3384 42.1062 14.0751 43.3596C13.9476 43.4304 13.832 43.5225 13.7275 43.5936C13.7114 47.0731 13.6954 50.5165 13.6794 54.0596Z" fill="white"/>
</g>
</svg>
